<svg width="58" height="58" viewBox="0 0 58 58" fill="none" xmlns="http://www.w3.org/2000/svg">
    <path d="M29 44a15 15 0 1 0 0-30 15 15 0 0 0 0 30zm12.056-9.803a13.172 13.172 0 0 1-6.858 6.86l-2.091-5.228a7.529 7.529 0 0 0 3.722-3.722l5.227 2.09zm-17.253 6.86a13.171 13.171 0 0 1-6.86-6.86l5.228-2.09a7.529 7.529 0 0 0 3.722 3.722l-2.09 5.227zm17.253-17.255-5.227 2.091a7.529 7.529 0 0 0-3.722-3.722l2.09-5.227a13.171 13.171 0 0 1 6.86 6.858zm-15.163-1.63a7.529 7.529 0 0 0-3.722 3.721l-5.227-2.09a13.17 13.17 0 0 1 6.858-6.86l2.091 5.228zM29 34.624a5.625 5.625 0 1 1 0-11.25 5.625 5.625 0 0 1 0 11.25z" fill="#000"/>
    <circle cx="29" cy="29" r="28" stroke="#02AFCD" stroke-width="2"/>
</svg>
