<svg width="58" height="58" viewBox="0 0 58 58" fill="none" xmlns="http://www.w3.org/2000/svg">
    <path d="M42.636 27H39.74v-9.546A5.454 5.454 0 0 0 34.284 12H23.716a5.454 5.454 0 0 0-5.455 5.454V27h-2.897c-.755 0-1.364.61-1.364 1.364v16.363c0 .755.61 1.364 1.364 1.364h27.272c.755 0 1.364-.61 1.364-1.364V28.364c0-.755-.61-1.364-1.364-1.364zM30.193 37.1v2.258c0 .188-.153.34-.34.34h-1.705a.342.342 0 0 1-.341-.34v-2.259a2.046 2.046 0 1 1 2.386 0zM36.67 27H21.33v-9.546a2.388 2.388 0 0 1 2.386-2.386h10.568a2.388 2.388 0 0 1 2.386 2.386V27z" fill="#000"/>
    <circle cx="29" cy="29" r="28" stroke="#02AFCD" stroke-width="2"/>
</svg>
