<svg width="58" height="58" viewBox="0 0 58 58" fill="none" xmlns="http://www.w3.org/2000/svg">
    <circle cx="29" cy="29" r="28" stroke="#02AFCD" stroke-width="2"/>
    <path d="m43.03 25.088-8.993-1.307-4.02-8.15a1.128 1.128 0 0 0-.514-.514 1.138 1.138 0 0 0-1.52.513l-4.02 8.15-8.993 1.308a1.132 1.132 0 0 0-.627 1.934l6.507 6.344-1.538 8.958a1.132 1.132 0 0 0 1.644 1.194L29 39.287l8.044 4.23a1.132 1.132 0 0 0 1.644-1.194l-1.538-8.958 6.507-6.344c.177-.174.294-.4.33-.648a1.13 1.13 0 0 0-.957-1.286z" fill="#000"/>
</svg>
