<svg width="258" height="71" viewBox="0 0 258 71" fill="none" xmlns="http://www.w3.org/2000/svg">
    <path d="M44.303 37.431V70.46h15.934v-10.72h4.587v10.72h9.657c4.829 0 6.358-4.829 6.519-7.243V37.43H44.303z" fill="#68D1E3"/>
    <path d="M44.303.734V31.56h9.72c1.556-.68 3.727-5.374 4.618-7.636h15.797c0 2.941-1.134 6.316-1.701 7.636H81V7.52C81 2.148 78.084.734 74.438.734h-6.076v16.12h-2.916V.734H44.303z" fill="#02AFCD"/>
    <path d="M46.528 45.505c-.197 1.969.903 2.278 1.477 2.187h29.05c.985-.218 1.067-1.55.985-2.187H46.528zM64.871 58.716h-4.64c0-3.47-1.63-4.145-2.444-4.048h-6.84c-2.149 0-2.36-3.663-2.198-5.494h27.847c0 4.395-1.791 5.494-2.687 5.494-1.384-.097-4.64-.231-6.595 0-1.954.231-2.443 2.795-2.443 4.048zM61.863 17.615c-2.507 0-3.455 3.914-3.615 5.871h16.146c0-3.955-2.73-5.665-4.097-5.871h-8.434z" fill="#F5F5F5"/>
    <path d="M1 7.497v24.797h6.85V19.03H2.223L19.838 4.037 36.474 19.03h-4.893v13.264h6.85V0H9.073C3.006 0 1.163 4.998 1 7.497z" fill="#68D1E3"/>
    <path fill="#68D1E3" d="M19.349 18.349h9.541v13.945h-9.541zM9.807 18.349h3.67v5.138h-3.67zM9.807 24.22h3.67v5.138h-3.67zM14.211 18.349h3.67v5.138h-3.67zM14.211 24.22h3.67v5.138h-3.67z"/>
    <path fill-rule="evenodd" clip-rule="evenodd" d="M1 37.238v24.916c.244 2.704 2.1 8.112 7.568 8.112h29.54V37.238H24.925v22.598l3.174 3.766c1.79-.29 5.37.174 5.37 4.346h-6.835l-5.127-6.374V37.238h-2.93v23.614c.886.734 1.465 1.951 1.465 3.33 0 2.24-1.53 4.055-3.417 4.055-1.458 0-2.702-1.082-3.194-2.607H8.568c-.895 0-2.685-.869-2.685-4.346V50.275c.162-2.414 1.855-7.243 7.324-7.243l.976-1.158h1.953v-4.636H1z" fill="#02AFCD"/>
    <path d="M1 62.154H.671v.014l.001.015.328-.03zm0-24.916v-.329H.671v.33H1zm37.108 33.028v.328h.33v-.328h-.33zm0-33.028h.33v-.329h-.33v.33zm-13.183 0v-.329h-.329v.33h.33zm0 22.598h-.329v.12l.078.092.251-.212zm3.174 3.766-.252.212.12.143.184-.03-.052-.325zm5.37 4.346v.329h.33v-.33h-.33zm-6.835 0-.256.206.099.123h.157v-.33zm-5.127-6.374h-.329v.116l.073.09.256-.206zm0-24.336h.33v-.329h-.33v.33zm-2.93 0v-.329h-.328v.33h.329zm0 23.614h-.328v.155l.119.099.21-.254zm-5.146 4.778.313-.1-.073-.229h-.24v.33zM5.883 50.275l-.329-.022v.022h.329zm7.324-7.243v.33h.153l.098-.118-.251-.212zm.976-1.158v-.33h-.153l-.098.117.251.212zm1.953 0v.328h.33v-.328h-.33zm0-4.636h.33v-.329h-.33v.33zM1.33 62.154V37.238H.671v24.916h.658zm7.24 7.783c-2.606 0-4.345-1.28-5.474-2.901-1.138-1.633-1.65-3.603-1.767-4.912l-.656.06c.126 1.394.665 3.48 1.883 5.228 1.226 1.759 3.15 3.182 6.013 3.182v-.657zm29.54 0H8.568v.657h29.54v-.657zm-.33-32.699v33.028h.658V37.238h-.657zm-12.854.329h13.183v-.658H24.925v.658zm.33 22.269V37.238h-.659v22.598h.658zm3.096 3.554-3.174-3.766-.503.424 3.173 3.766.503-.424zm5.448 4.558c0-2.2-.956-3.474-2.188-4.136-1.201-.646-2.623-.687-3.565-.535l.105.65c.85-.138 2.113-.092 3.15.465 1.006.54 1.84 1.585 1.84 3.556h.658zm-7.165.329h6.836v-.658h-6.836v.658zm-5.383-6.497 5.127 6.374.512-.412-5.126-6.374-.513.412zm-.073-24.542v24.336h.658V37.238h-.658zm-2.6.329h2.93v-.658h-2.93v.658zm.329 23.285V37.239h-.658v23.614h.658zm-.54.254c.805.665 1.347 1.787 1.347 3.075h.658c0-1.467-.617-2.781-1.585-3.582l-.42.507zm1.347 3.075c0 2.114-1.434 3.728-3.09 3.728v.657c2.12 0 3.748-2.018 3.748-4.385h-.658zm-3.09 3.728c-1.28 0-2.421-.956-2.88-2.38l-.626.202c.524 1.626 1.873 2.836 3.507 2.836v-.658zm-8.056-1.95h4.863v-.658H8.568v.658zm-3.014-4.675c0 1.794.462 2.964 1.086 3.691.621.724 1.384.984 1.928.984v-.658c-.35 0-.93-.174-1.429-.754-.495-.577-.927-1.58-.927-3.263h-.658zm0-11.009v11.01h.658v-11.01h-.658zm7.653-7.572c-2.848 0-4.732 1.265-5.916 2.849-1.172 1.57-1.652 3.445-1.737 4.701l.657.044c.078-1.158.526-2.904 1.608-4.352 1.07-1.434 2.767-2.584 5.388-2.584v-.658zm.725-1.042-.977 1.16.503.423.977-1.158-.503-.425zm2.204-.116h-1.953v.657h1.953v-.657zm-.329-4.307v4.636h.658v-4.636h-.658zM1 37.567h15.136v-.658H1v.658z" fill="#02AFCD"/>
    <path d="M5.404 56.514h4.885c.812 0 3.188-.704 3.188-3.518V41.835M12.977 66.055c-.365-1.257-.682-4.282 2.16-5.54 2.59-1.146 4.49.93 4.946 2.396" stroke="#02AFCD" stroke-width=".658"/>
    <path d="M90.893 41V19.215h14.68v3.797H95.499v5.191h9.319v3.798h-9.319v5.202h10.116V41H90.893zm30.16-15.52c-.086-.858-.451-1.524-1.096-2-.645-.475-1.521-.712-2.627-.712-.752 0-1.387.106-1.905.319-.517.206-.914.493-1.191.862a2.076 2.076 0 0 0-.404 1.255c-.014.39.067.73.245 1.02.184.292.436.543.755.756.319.206.688.387 1.106.543.418.149.865.276 1.34.383l1.958.468a13.8 13.8 0 0 1 2.616.85c.795.355 1.482.791 2.064 1.309a5.443 5.443 0 0 1 1.351 1.83c.326.702.493 1.507.5 2.414-.007 1.333-.348 2.49-1.021 3.468-.667.972-1.631 1.727-2.894 2.266-1.255.531-2.769.797-4.542.797-1.758 0-3.29-.269-4.595-.808-1.298-.539-2.312-1.337-3.042-2.393-.724-1.064-1.103-2.38-1.138-3.947h4.457c.049.73.258 1.34.627 1.83.376.482.876.847 1.5 1.096.631.24 1.344.361 2.138.361.78 0 1.457-.113 2.032-.34.581-.227 1.032-.543 1.351-.947.319-.404.478-.869.478-1.393 0-.49-.145-.901-.436-1.234-.283-.334-.702-.617-1.255-.851-.546-.234-1.216-.447-2.01-.639l-2.372-.595c-1.837-.447-3.287-1.146-4.351-2.096-1.064-.95-1.592-2.23-1.585-3.84-.007-1.319.344-2.471 1.053-3.457.716-.986 1.698-1.755 2.947-2.308 1.248-.553 2.666-.83 4.254-.83 1.617 0 3.028.277 4.234.83 1.213.553 2.156 1.322 2.83 2.308.673.986 1.021 2.128 1.042 3.425h-4.414zm19.628 0c-.085-.858-.45-1.524-1.096-2-.645-.475-1.521-.712-2.627-.712-.752 0-1.387.106-1.904.319-.518.206-.915.493-1.192.862a2.076 2.076 0 0 0-.404 1.255c-.014.39.068.73.245 1.02.184.292.436.543.755.756.319.206.688.387 1.106.543.419.149.866.276 1.341.383l1.957.468c.95.212 1.822.496 2.617.85a7.94 7.94 0 0 1 2.063 1.309 5.43 5.43 0 0 1 1.351 1.83c.326.702.493 1.507.5 2.414-.007 1.333-.347 2.49-1.021 3.468-.667.972-1.631 1.727-2.893 2.266-1.256.531-2.77.797-4.542.797-1.759 0-3.291-.269-4.596-.808-1.297-.539-2.312-1.337-3.042-2.393-.723-1.064-1.103-2.38-1.138-3.947h4.457c.049.73.259 1.34.627 1.83.376.482.876.847 1.5 1.096.631.24 1.344.361 2.138.361.78 0 1.458-.113 2.032-.34.582-.227 1.032-.543 1.351-.947.319-.404.479-.869.479-1.393 0-.49-.146-.901-.436-1.234-.284-.334-.703-.617-1.256-.851-.546-.234-1.216-.447-2.01-.639l-2.372-.595c-1.837-.447-3.287-1.146-4.351-2.096-1.064-.95-1.592-2.23-1.585-3.84-.007-1.319.344-2.471 1.053-3.457.717-.986 1.699-1.755 2.947-2.308 1.248-.553 2.666-.83 4.255-.83 1.617 0 3.028.277 4.233.83 1.213.553 2.156 1.322 2.83 2.308.674.986 1.021 2.128 1.042 3.425h-4.414zm7.81 15.52V19.215h14.68v3.797h-10.074v5.191h9.318v3.798h-9.318v5.202h10.116V41h-14.722zm36.563-21.785V41h-3.978l-9.478-13.711h-.16V41h-4.606V19.215h4.043l9.403 13.7h.191v-13.7h4.585zm23.027 7.627h-4.659a4.561 4.561 0 0 0-.521-1.606 4.1 4.1 0 0 0-1.011-1.213 4.442 4.442 0 0 0-1.425-.766 5.456 5.456 0 0 0-1.734-.266c-1.128 0-2.11.28-2.947.84-.837.554-1.485 1.362-1.946 2.426-.461 1.056-.692 2.34-.692 3.85 0 1.553.231 2.858.692 3.915.468 1.057 1.12 1.854 1.957 2.393.837.54 1.805.809 2.904.809.617 0 1.188-.082 1.712-.245a4.496 4.496 0 0 0 1.415-.713c.411-.319.752-.705 1.021-1.159.277-.454.468-.971.575-1.553l4.659.021a8.443 8.443 0 0 1-.904 2.894 8.686 8.686 0 0 1-1.926 2.478c-.801.723-1.758 1.298-2.872 1.723-1.106.419-2.358.628-3.755.628-1.943 0-3.68-.44-5.212-1.32-1.525-.879-2.73-2.151-3.617-3.818-.879-1.666-1.319-3.684-1.319-6.052 0-2.376.447-4.397 1.341-6.064.893-1.666 2.106-2.936 3.638-3.808 1.531-.88 3.255-1.319 5.169-1.319 1.263 0 2.433.177 3.511.532a8.89 8.89 0 0 1 2.882 1.553 7.99 7.99 0 0 1 2.043 2.479c.532.978.872 2.099 1.021 3.36zm7.909-7.627V41h-4.606V19.215h4.606zM223.534 41h-4.936l7.521-21.785h5.935L239.564 41h-4.935l-5.457-16.807h-.17L223.534 41zm-.308-8.563h11.658v3.595h-11.658v-3.595zM242.186 41V19.215h4.606v17.988h9.34V41h-13.946z" fill="#02AFCD"/>
    <path d="M89.954 48.21v-.937H96.5v.937h-2.744V56h-1.057v-7.79h-2.745zm11.275 5.114v-3.87h1.006V56h-1.006v-1.108h-.068a2.152 2.152 0 0 1-.716.848c-.324.23-.733.345-1.227.345-.41 0-.773-.09-1.091-.268a1.88 1.88 0 0 1-.75-.818c-.182-.367-.273-.829-.273-1.385v-4.16h1.006v4.091c0 .478.133.858.4 1.142.27.285.614.427 1.031.427.25 0 .505-.064.763-.192.262-.128.48-.324.657-.588.179-.264.268-.601.268-1.01zm8.149 2.83c-.415 0-.791-.079-1.129-.235a1.941 1.941 0 0 1-.806-.686c-.199-.301-.298-.665-.298-1.091 0-.375.074-.679.221-.912a1.57 1.57 0 0 1 .593-.554c.247-.133.52-.233.818-.298.301-.068.604-.122.908-.162.397-.051.72-.09.967-.115.25-.029.432-.075.545-.14.117-.066.175-.18.175-.342v-.034c0-.42-.115-.747-.345-.98-.227-.233-.572-.35-1.036-.35-.48 0-.856.106-1.129.316-.273.21-.464.435-.575.673l-.955-.34c.171-.398.398-.708.682-.93.287-.224.6-.38.938-.468.341-.091.676-.137 1.005-.137.211 0 .452.026.725.077.275.048.541.15.797.303.258.153.473.384.643.694.171.31.256.725.256 1.245V56h-1.006v-.886h-.051a1.768 1.768 0 0 1-.341.456 1.97 1.97 0 0 1-.635.413c-.264.114-.586.17-.967.17zm.153-.904c.398 0 .733-.078 1.006-.234a1.59 1.59 0 0 0 .835-1.385v-.92c-.042.05-.136.097-.281.14-.142.04-.307.075-.494.106a22.082 22.082 0 0 1-.963.128c-.262.034-.506.09-.733.166a1.261 1.261 0 0 0-.546.337c-.136.148-.204.35-.204.605 0 .35.129.614.387.793.262.176.593.264.993.264zm5.688-7.977V56h-1.006v-8.727h1.006zM117.061 56v-6.545h1.006V56h-1.006zm.511-7.636a.715.715 0 0 1-.507-.2.644.644 0 0 1-.208-.482c0-.188.069-.348.208-.482a.715.715 0 0 1 .507-.2.7.7 0 0 1 .503.2.637.637 0 0 1 .213.482.638.638 0 0 1-.213.481.7.7 0 0 1-.503.2zm4.263 7.79c-.415 0-.791-.079-1.129-.235a1.941 1.941 0 0 1-.806-.686c-.199-.301-.298-.665-.298-1.091 0-.375.074-.679.222-.912a1.56 1.56 0 0 1 .592-.554c.247-.133.52-.233.818-.298.301-.068.604-.122.908-.162.397-.051.72-.09.967-.115.25-.029.432-.075.545-.14.117-.066.175-.18.175-.342v-.034c0-.42-.115-.747-.345-.98-.227-.233-.572-.35-1.035-.35-.481 0-.857.106-1.13.316-.272.21-.464.435-.575.673l-.955-.34c.171-.398.398-.708.682-.93.287-.224.6-.38.938-.468.341-.091.676-.137 1.005-.137.211 0 .452.026.725.077.275.048.541.15.797.303.258.153.473.384.643.694.171.31.256.725.256 1.245V56h-1.006v-.886h-.051a1.768 1.768 0 0 1-.341.456 1.97 1.97 0 0 1-.635.413c-.264.114-.586.17-.967.17zm.153-.904c.398 0 .733-.078 1.006-.234a1.59 1.59 0 0 0 .835-1.385v-.92c-.042.05-.136.097-.281.14-.142.04-.307.075-.494.106a22.082 22.082 0 0 1-.963.128c-.262.034-.506.09-.733.166a1.261 1.261 0 0 0-.546.337c-.136.148-.204.35-.204.605 0 .35.129.614.387.793.262.176.593.264.993.264zm7.154.886a2.566 2.566 0 0 1-1.445-.413c-.417-.278-.744-.67-.98-1.176-.235-.509-.353-1.11-.353-1.803 0-.687.118-1.284.353-1.79.236-.505.564-.896.985-1.171.42-.276.906-.414 1.457-.414.426 0 .763.071 1.01.213.25.14.44.299.571.478.134.176.237.32.311.434h.085v-3.221h1.006V56h-.972v-1.006h-.119c-.074.12-.179.27-.315.452-.137.179-.331.34-.584.482-.253.139-.589.208-1.01.208zm.136-.903c.404 0 .745-.105 1.023-.315.279-.213.49-.508.635-.883.145-.377.217-.813.217-1.308 0-.488-.071-.916-.213-1.282a1.869 1.869 0 0 0-.63-.861c-.279-.208-.622-.311-1.032-.311-.426 0-.781.11-1.065.328-.281.216-.493.51-.635.882a3.51 3.51 0 0 0-.209 1.244c0 .466.071.89.213 1.27.145.378.358.68.64.904.284.221.636.332 1.056.332zm7.505.903c-.591 0-1.11-.14-1.556-.422a2.866 2.866 0 0 1-1.039-1.18c-.248-.506-.371-1.096-.371-1.773 0-.681.123-1.277.371-1.785a2.86 2.86 0 0 1 1.039-1.185c.446-.281.965-.422 1.556-.422.591 0 1.108.14 1.551.422.446.281.792.676 1.04 1.185.25.508.375 1.104.375 1.785 0 .676-.125 1.267-.375 1.773-.248.506-.594.9-1.04 1.18-.443.282-.96.422-1.551.422zm0-.903c.449 0 .818-.115 1.108-.345.289-.23.504-.533.643-.908a3.48 3.48 0 0 0 .209-1.219c0-.437-.07-.845-.209-1.223a2.064 2.064 0 0 0-.643-.916c-.29-.233-.659-.35-1.108-.35-.449 0-.819.117-1.108.35-.29.233-.505.538-.644.916a3.515 3.515 0 0 0-.209 1.223c0 .438.07.844.209 1.22.139.374.354.677.644.907.289.23.659.345 1.108.345zm10.62.903c-.631 0-1.175-.139-1.632-.417a2.807 2.807 0 0 1-1.053-1.176c-.244-.506-.366-1.094-.366-1.765 0-.67.122-1.261.366-1.772a2.894 2.894 0 0 1 1.032-1.202c.443-.29.96-.435 1.551-.435.341 0 .677.057 1.01.17.332.114.635.3.907.555.273.253.49.588.652 1.005.162.418.243.932.243 1.543v.426h-5.045v-.87h4.023c0-.368-.074-.698-.222-.988a1.67 1.67 0 0 0-.622-.686 1.744 1.744 0 0 0-.946-.251c-.401 0-.747.1-1.04.298-.29.196-.513.452-.669.767a2.256 2.256 0 0 0-.234 1.014v.58c0 .494.085.913.255 1.257.174.34.414.6.72.78.307.176.664.264 1.07.264.264 0 .503-.037.716-.11.216-.078.402-.191.558-.342.156-.153.277-.343.362-.57l.972.272c-.102.33-.274.62-.516.87-.241.246-.539.44-.895.579a3.316 3.316 0 0 1-1.197.204zm5.246-4.074V56h-1.006v-6.545h.972v1.022h.085c.153-.332.386-.6.699-.8.312-.205.716-.308 1.21-.308.443 0 .831.091 1.163.273.333.179.591.452.776.818.185.364.277.824.277 1.38V56h-1.006v-4.09c0-.515-.133-.916-.4-1.203-.267-.29-.634-.434-1.1-.434-.321 0-.608.07-.861.208-.25.14-.447.343-.592.61-.145.267-.217.59-.217.971zm10.394-4.79V56h-1.005v-8.727h1.005zm3.768 8.881a2.66 2.66 0 0 1-1.129-.234 1.939 1.939 0 0 1-.805-.686c-.199-.301-.299-.665-.299-1.091 0-.375.074-.679.222-.912.148-.236.345-.42.592-.554.248-.133.52-.233.819-.298.301-.068.603-.122.907-.162.398-.051.72-.09.968-.115.25-.029.431-.075.545-.14.117-.066.175-.18.175-.342v-.034c0-.42-.115-.747-.345-.98-.228-.233-.573-.35-1.036-.35-.48 0-.856.106-1.129.316-.273.21-.465.435-.575.673l-.955-.34c.17-.398.398-.708.682-.93.287-.224.599-.38.937-.468.341-.091.676-.137 1.006-.137.21 0 .452.026.724.077.276.048.542.15.797.303.259.153.473.384.644.694.17.31.255.725.255 1.245V56h-1.005v-.886h-.051a1.791 1.791 0 0 1-.341.456 1.97 1.97 0 0 1-.635.413c-.264.114-.587.17-.968.17zm.154-.903c.398 0 .733-.078 1.006-.234.275-.157.482-.358.622-.605.142-.248.213-.508.213-.78v-.92c-.043.05-.137.097-.281.14-.143.04-.307.075-.495.106a22.013 22.013 0 0 1-.963.128c-.261.034-.506.09-.733.166a1.263 1.263 0 0 0-.545.337c-.137.148-.205.35-.205.605 0 .35.129.614.388.793.261.176.592.264.993.264zm9.063-7.977V56h-1.006v-8.727h1.006zM177.87 56v-6.545h1.005V56h-1.005zm.511-7.636a.715.715 0 0 1-.507-.2.645.645 0 0 1-.209-.482c0-.188.07-.348.209-.482a.715.715 0 0 1 .507-.2.7.7 0 0 1 .503.2.637.637 0 0 1 .213.482.638.638 0 0 1-.213.481.7.7 0 0 1-.503.2zM180.717 56v-6.545h.972v1.022h.085c.137-.35.357-.62.661-.814.304-.196.669-.294 1.095-.294.432 0 .791.098 1.078.294.29.194.516.465.678.814h.068c.167-.338.419-.606.754-.805.335-.202.737-.303 1.206-.303.585 0 1.064.184 1.436.55.372.364.558.93.558 1.7V56h-1.005v-4.38c0-.484-.133-.829-.397-1.036a1.466 1.466 0 0 0-.933-.311c-.46 0-.817.139-1.07.417-.252.276-.379.625-.379 1.049V56h-1.023v-4.483c0-.372-.12-.672-.362-.9-.241-.23-.552-.344-.933-.344-.261 0-.506.07-.733.208-.224.14-.406.333-.545.58a1.704 1.704 0 0 0-.205.848V56h-1.006zm10.43 2.455v-9h.972v1.04h.119c.074-.114.176-.26.307-.435.133-.18.324-.338.571-.478.25-.142.588-.213 1.014-.213.551 0 1.037.138 1.457.414.421.275.749.666.985 1.172.236.505.353 1.102.353 1.79 0 .693-.117 1.293-.353 1.802-.236.506-.563.898-.98 1.176-.418.276-.9.413-1.445.413-.42 0-.757-.07-1.01-.208a1.879 1.879 0 0 1-.584-.482 6.602 6.602 0 0 1-.315-.452h-.085v3.46h-1.006zm.989-5.728c0 .495.072.93.217 1.309.145.374.357.669.635.882.278.21.619.315 1.023.315.42 0 .771-.11 1.052-.332.284-.225.497-.526.639-.904.145-.38.218-.804.218-1.27 0-.46-.071-.875-.213-1.244a1.929 1.929 0 0 0-.635-.882c-.282-.219-.635-.328-1.061-.328-.409 0-.753.103-1.032.31a1.869 1.869 0 0 0-.63.862c-.142.366-.213.794-.213 1.282zM198.46 56v-6.545h1.005V56h-1.005zm.511-7.636a.715.715 0 0 1-.507-.2.645.645 0 0 1-.209-.482c0-.188.07-.348.209-.482a.715.715 0 0 1 .507-.2.7.7 0 0 1 .503.2.637.637 0 0 1 .213.482.638.638 0 0 1-.213.481.7.7 0 0 1-.503.2zm5.08 7.772c-.63 0-1.174-.139-1.632-.417a2.805 2.805 0 0 1-1.052-1.176c-.244-.506-.367-1.094-.367-1.765 0-.67.123-1.261.367-1.772a2.892 2.892 0 0 1 1.031-1.202c.443-.29.96-.435 1.551-.435a3.1 3.1 0 0 1 1.01.17 2.5 2.5 0 0 1 .908.555c.273.253.49.588.652 1.005.162.418.243.932.243 1.543v.426h-5.046v-.87h4.023c0-.368-.074-.698-.222-.988a1.664 1.664 0 0 0-.622-.686 1.741 1.741 0 0 0-.946-.251c-.4 0-.747.1-1.04.298a1.974 1.974 0 0 0-.669.767 2.256 2.256 0 0 0-.234 1.014v.58c0 .494.085.913.256 1.257.173.34.413.6.72.78a2.11 2.11 0 0 0 1.069.264c.265 0 .503-.037.716-.11a1.54 1.54 0 0 0 .559-.342c.156-.153.277-.343.362-.57l.971.272c-.102.33-.274.62-.515.87a2.52 2.52 0 0 1-.895.579 3.318 3.318 0 0 1-1.198.204zm4.053-.136v-.767l3.716-4.773v-.068h-3.597v-.938h4.892v.802l-3.613 4.738v.069h3.733V56h-5.131zm8.606.153c-.415 0-.791-.078-1.129-.234a1.941 1.941 0 0 1-.806-.686c-.199-.301-.298-.665-.298-1.091 0-.375.074-.679.222-.912a1.56 1.56 0 0 1 .592-.554c.247-.133.52-.233.818-.298.301-.068.604-.122.908-.162.397-.051.72-.09.967-.115.25-.029.432-.075.545-.14.117-.066.175-.18.175-.342v-.034c0-.42-.115-.747-.345-.98-.227-.233-.572-.35-1.035-.35-.481 0-.857.106-1.13.316-.272.21-.464.435-.575.673l-.955-.34c.171-.398.398-.708.682-.93.287-.224.6-.38.938-.468.341-.091.676-.137 1.005-.137.211 0 .452.026.725.077.275.048.541.15.797.303.258.153.473.384.643.694.171.31.256.725.256 1.245V56h-1.006v-.886h-.051a1.768 1.768 0 0 1-.341.456 1.97 1.97 0 0 1-.635.413c-.264.114-.586.17-.967.17zm.153-.903c.398 0 .733-.078 1.006-.234a1.59 1.59 0 0 0 .835-1.385v-.92c-.042.05-.136.097-.281.14-.142.04-.307.075-.494.106a22.082 22.082 0 0 1-.963.128c-.262.034-.506.09-.733.166a1.261 1.261 0 0 0-.546.337c-.136.148-.204.35-.204.605 0 .35.129.614.387.793.262.176.593.264.993.264z" fill="#858585"/>
</svg>
