<svg width="91" height="86" viewBox="0 0 91 86" fill="none" xmlns="http://www.w3.org/2000/svg">
    <path d="M49.716 45.156V85h17.926V72.068h5.16V85h10.865c5.432 0 7.152-5.825 7.333-8.738V45.156H49.716z" fill="#fff"/>
    <path d="M49.716.885v37.188h10.936c1.75-.819 4.192-6.482 5.195-9.212h17.771c0 3.549-1.276 7.62-1.914 9.212H91v-29C91 2.591 87.72.885 83.618.885h-6.835v19.447h-3.281V.885H49.716z" fill="#9FF1FF"/>
    <path d="M52.219 54.896c-.222 2.375 1.015 2.75 1.662 2.64h32.681c1.108-.265 1.2-1.87 1.108-2.64H52.22zM72.855 70.833h-5.221c0-4.185-1.832-5-2.748-4.883H57.19c-2.418 0-2.656-4.418-2.473-6.627h31.328c0 5.302-2.015 6.627-3.023 6.627-1.557-.116-5.221-.279-7.42 0-2.198.28-2.748 3.372-2.748 4.883zM69.47 21.25c-2.82 0-3.886 4.722-4.066 7.083h18.165c0-4.772-3.073-6.835-4.61-7.083H69.47z" fill="#02AFCD"/>
    <path d="M1 9.044v29.914h7.706v-16h-6.33L22.193 4.87l18.715 18.088h-5.504v16h7.706V0H10.083C3.257 0 1.183 6.03 1 9.044z" fill="#fff"/>
    <path fill="#fff" d="M21.642 22.135h10.734v16.823H21.642zM10.908 22.135h4.128v6.198h-4.128zM10.908 29.219h4.128v6.198h-4.128zM15.862 22.135h4.128v6.198h-4.128zM15.862 29.219h4.128v6.198h-4.128z"/>
    <path fill-rule="evenodd" clip-rule="evenodd" d="M1 44.923v30.058c.275 3.262 2.362 9.786 8.514 9.786h33.233V44.923H27.916v27.262l3.57 4.543c2.014-.35 6.043.21 6.043 5.243h-7.69l-5.768-7.69V44.924h-3.296v28.488c.996.885 1.648 2.353 1.648 4.016 0 2.703-1.722 4.893-3.845 4.893-1.64 0-3.04-1.306-3.593-3.145h-5.47c-1.008 0-3.022-1.049-3.022-5.243V60.651c.183-2.913 2.087-8.738 8.24-8.738l1.098-1.398h2.197v-5.592H1z" fill="#9FF1FF"/>
    <path d="M1 74.98H.671v.014l.001.014.328-.027zm0-30.057v-.329H.671v.33H1zm41.747 39.844v.329h.329v-.33h-.329zm0-39.844h.329v-.329h-.329v.33zm-14.831 0v-.329h-.33v.33h.33zm0 27.262h-.33v.113l.071.09.259-.203zm3.57 4.543-.258.203.121.155.194-.034-.057-.324zm6.043 5.243v.329h.329v-.33h-.33zm-7.69 0-.264.197.099.132h.164v-.33zm-5.768-7.69h-.33v.11l.067.088.263-.197zm0-29.358h.329v-.329h-.33v.33zm-3.296 0v-.329h-.33v.33h.33zm0 28.488h-.33v.148l.111.098.219-.246zm-5.79 5.764.315-.095-.07-.234h-.245v.329zM6.493 60.65l-.328-.02v.02h.328zm8.24-8.738v.33h.16l.098-.127-.258-.203zm1.098-1.398v-.329h-.16l-.098.126.258.203zm2.197 0v.33h.33v-.33h-.33zm0-5.592h.33v-.329h-.33v.33zm-16.7 30.058V44.923H.672v30.058h.658zm8.186 9.457c-2.937 0-4.904-1.549-6.185-3.52-1.289-1.983-1.867-4.373-2.001-5.965l-.656.055c.14 1.67.743 4.173 2.105 6.268 1.37 2.106 3.522 3.82 6.737 3.82v-.658zm33.233 0H9.514v.658h33.233v-.658zm-.329-39.515v39.844h.658V44.923h-.658zm-14.502.329h14.831v-.658H27.916v.658zm.329 26.933V44.923h-.658v27.262h.658zm3.5 4.34-3.57-4.544-.518.407 3.57 4.543.518-.406zm6.113 5.446c0-2.62-1.059-4.134-2.431-4.925-1.345-.775-2.94-.825-3.997-.642l.113.648c.956-.166 2.383-.111 3.556.564 1.145.66 2.1 1.942 2.1 4.355h.659zm-8.02.329h7.69v-.658h-7.69v.658zm-6.03-7.821 5.767 7.69.527-.396-5.768-7.689-.526.395zm-.066-29.556v29.359h.658V44.923h-.658zm-2.967.329h3.296v-.658h-3.296v.658zm.329 28.16V44.922h-.658v28.488h.658zm-.547.245c.916.814 1.537 2.189 1.537 3.77h.658c0-1.744-.683-3.307-1.759-4.262l-.436.492zm1.537 3.77c0 2.6-1.644 4.564-3.516 4.564v.658c2.374 0 4.174-2.416 4.174-5.222h-.658zm-3.516 4.564c-1.45 0-2.752-1.161-3.278-2.91l-.63.188c.58 1.93 2.077 3.38 3.908 3.38v-.658zm-9.064-2.487h5.471v-.658h-5.47v.658zm-3.35-5.572c0 2.148.516 3.539 1.205 4.4.688.86 1.536 1.172 2.145 1.172v-.658c-.397 0-1.06-.212-1.631-.925-.57-.712-1.061-1.942-1.061-3.989h-.658zm0-13.281v13.281h.658V60.651h-.658zm8.569-9.067c-3.2 0-5.309 1.523-6.629 3.418-1.31 1.88-1.845 4.127-1.94 5.628l.657.041c.089-1.41.597-3.533 1.823-5.293 1.216-1.746 3.136-3.136 6.089-3.136v-.658zm.84-1.272-1.1 1.398.518.407 1.099-1.399-.518-.406zm2.455-.126h-2.197v.658h2.197v-.658zm-.329-5.263v5.592h.658v-5.592H17.7zM1 45.252h17.028v-.658H1v.658z" fill="#02AFCD"/>
    <path d="M5.954 68.177h5.496c.913 0 3.587-.849 3.587-4.244V50.469M14.474 79.687c-.41-1.517-.767-5.166 2.43-6.683 2.915-1.382 5.051 1.121 5.564 2.89" stroke="#9FF1FF" stroke-width=".658"/>
</svg>
